<?xml version="1.0" encoding="UTF-8" standalone="no"?>
<!DOCTYPE svg PUBLIC "-//W3C//DTD SVG 1.0//EN"
 "http://www.w3.org/TR/2001/REC-SVG-20010904/DTD/svg10.dtd" [
 <!ATTLIST svg xmlns:xlink CDATA #FIXED "http://www.w3.org/1999/xlink">
]>
<!-- Generated by Graphviz version 2.20.2 (Tue Jul 29 16:40:41 UTC 2008)
     For user: (liamc) Liam Clancy -->
<!-- Title: controllers_diagram Pages: 1 -->
<svg width="816pt" height="609pt"
 viewBox="0.00 0.00 816.00 609.00" xmlns="http://www.w3.org/2000/svg" xmlns:xlink="http://www.w3.org/1999/xlink">
<g id="graph0" class="graph" transform="scale(1 1) rotate(0) translate(4 605)">
<title>controllers_diagram</title>
<polygon style="fill:white;stroke:white;" points="-4,4 -4,-605 812,-605 812,4 -4,4"/>
<!-- _diagram_info -->
<g id="node1" class="node"><title>_diagram_info</title>
<text text-anchor="start" x="584.5" y="-300.4" style="font-family:Times New Roman;font-size:11.00;">Controllers diagram</text>
<text text-anchor="start" x="584.5" y="-283.4" style="font-family:Times New Roman;font-size:11.00;">Date: Feb 12 2009 &#45; 10:18</text>
<text text-anchor="start" x="584.5" y="-266.4" style="font-family:Times New Roman;font-size:11.00;">Migration version: 20090108180233</text>
<text text-anchor="start" x="584.5" y="-249.4" style="font-family:Times New Roman;font-size:11.00;">Generated by RailRoad 0.5.0</text>
</g>
<!-- JavascriptUnitTestController -->
<g id="node2" class="node"><title>JavascriptUnitTestController</title>
<polyline style="fill:none;stroke:black;" points="13,-102 172,-102 "/>
<path style="fill:none;stroke:black;" d="M172,-102C178,-102 184,-108 184,-114"/>
<polyline style="fill:none;stroke:black;" points="184,-114 184,-189 "/>
<path style="fill:none;stroke:black;" d="M184,-189C184,-195 178,-201 172,-201"/>
<polyline style="fill:none;stroke:black;" points="172,-201 13,-201 "/>
<path style="fill:none;stroke:black;" d="M13,-201C7,-201 1,-195 1,-189"/>
<polyline style="fill:none;stroke:black;" points="1,-189 1,-114 "/>
<path style="fill:none;stroke:black;" d="M1,-114C1,-108 7,-102 13,-102"/>
<text text-anchor="middle" x="92" y="-183.9" style="font-family:Times New Roman;font-size:11.00;">JavascriptUnitTestController</text>
<polyline style="fill:none;stroke:black;" points="1,-176 184,-176 "/>
<text text-anchor="start" x="8.5" y="-158.9" style="font-family:Times New Roman;font-size:11.00;">index</text>
<polyline style="fill:none;stroke:black;" points="1,-151 184,-151 "/>
<polyline style="fill:none;stroke:black;" points="1,-127 184,-127 "/>
<text text-anchor="start" x="8.5" y="-109.9" style="font-family:Times New Roman;font-size:11.00;">render_cached</text>
</g>
<!-- JavascriptUnitTestResultController -->
<g id="node3" class="node"><title>JavascriptUnitTestResultController</title>
<polyline style="fill:none;stroke:black;" points="373,-53 567,-53 "/>
<path style="fill:none;stroke:black;" d="M567,-53C573,-53 579,-59 579,-65"/>
<polyline style="fill:none;stroke:black;" points="579,-65 579,-207 "/>
<path style="fill:none;stroke:black;" d="M579,-207C579,-213 573,-219 567,-219"/>
<polyline style="fill:none;stroke:black;" points="567,-219 373,-219 "/>
<path style="fill:none;stroke:black;" d="M373,-219C367,-219 361,-213 361,-207"/>
<polyline style="fill:none;stroke:black;" points="361,-207 361,-65 "/>
<path style="fill:none;stroke:black;" d="M361,-65C361,-59 367,-53 373,-53"/>
<text text-anchor="middle" x="470" y="-201.9" style="font-family:Times New Roman;font-size:11.00;">JavascriptUnitTestResultController</text>
<polyline style="fill:none;stroke:black;" points="361,-194 579,-194 "/>
<text text-anchor="start" x="369" y="-176.9" style="font-family:Times New Roman;font-size:11.00;">collect_result</text>
<text text-anchor="start" x="369" y="-159.9" style="font-family:Times New Roman;font-size:11.00;">destroy</text>
<text text-anchor="start" x="369" y="-142.9" style="font-family:Times New Roman;font-size:11.00;">destroy_all</text>
<text text-anchor="start" x="369" y="-125.9" style="font-family:Times New Roman;font-size:11.00;">index</text>
<text text-anchor="start" x="369" y="-108.9" style="font-family:Times New Roman;font-size:11.00;">show</text>
<polyline style="fill:none;stroke:black;" points="361,-101 579,-101 "/>
<polyline style="fill:none;stroke:black;" points="361,-77 579,-77 "/>
</g>
<!-- JsController -->
<g id="node4" class="node"><title>JsController</title>
<polyline style="fill:none;stroke:black;" points="226,-0 316,-0 "/>
<path style="fill:none;stroke:black;" d="M316,-0C322,-0 328,-6 328,-12"/>
<polyline style="fill:none;stroke:black;" points="328,-12 328,-155 "/>
<path style="fill:none;stroke:black;" d="M328,-155C328,-161 322,-167 316,-167"/>
<polyline style="fill:none;stroke:black;" points="316,-167 226,-167 "/>
<path style="fill:none;stroke:black;" d="M226,-167C220,-167 214,-161 214,-155"/>
<polyline style="fill:none;stroke:black;" points="214,-155 214,-12 "/>
<path style="fill:none;stroke:black;" d="M214,-12C214,-6 220,-0 226,-0"/>
<text text-anchor="middle" x="271" y="-149.9" style="font-family:Times New Roman;font-size:11.00;">JsController</text>
<polyline style="fill:none;stroke:black;" points="214,-142 328,-142 "/>
<text text-anchor="start" x="222" y="-124.9" style="font-family:Times New Roman;font-size:11.00;">dist</text>
<text text-anchor="start" x="222" y="-107.9" style="font-family:Times New Roman;font-size:11.00;">show</text>
<text text-anchor="start" x="222" y="-90.9" style="font-family:Times New Roman;font-size:11.00;">src</text>
<polyline style="fill:none;stroke:black;" points="214,-83 328,-83 "/>
<polyline style="fill:none;stroke:black;" points="214,-59 328,-59 "/>
<text text-anchor="start" x="222" y="-41.9" style="font-family:Times New Roman;font-size:11.00;">dist_is_uptodate?</text>
<text text-anchor="start" x="222" y="-24.9" style="font-family:Times New Roman;font-size:11.00;">latest_timestamp</text>
<text text-anchor="start" x="222" y="-7.9" style="font-family:Times New Roman;font-size:11.00;">run_build</text>
</g>
<!-- LitmusController -->
<g id="node5" class="node"><title>LitmusController</title>
<polyline style="fill:none;stroke:black;" points="57,-356 149,-356 "/>
<path style="fill:none;stroke:black;" d="M149,-356C155,-356 161,-362 161,-368"/>
<polyline style="fill:none;stroke:black;" points="161,-368 161,-510 "/>
<path style="fill:none;stroke:black;" d="M161,-510C161,-516 155,-522 149,-522"/>
<polyline style="fill:none;stroke:black;" points="149,-522 57,-522 "/>
<path style="fill:none;stroke:black;" d="M57,-522C51,-522 45,-516 45,-510"/>
<polyline style="fill:none;stroke:black;" points="45,-510 45,-368 "/>
<path style="fill:none;stroke:black;" d="M45,-368C45,-362 51,-356 57,-356"/>
<text text-anchor="middle" x="103" y="-504.9" style="font-family:Times New Roman;font-size:11.00;">LitmusController</text>
<polyline style="fill:none;stroke:black;" points="45,-497 161,-497 "/>
<text text-anchor="start" x="53" y="-479.9" style="font-family:Times New Roman;font-size:11.00;">create</text>
<text text-anchor="start" x="53" y="-462.9" style="font-family:Times New Roman;font-size:11.00;">index</text>
<text text-anchor="start" x="53" y="-445.9" style="font-family:Times New Roman;font-size:11.00;">latest</text>
<text text-anchor="start" x="53" y="-428.9" style="font-family:Times New Roman;font-size:11.00;">new</text>
<text text-anchor="start" x="53" y="-411.9" style="font-family:Times New Roman;font-size:11.00;">show</text>
<polyline style="fill:none;stroke:black;" points="45,-404 161,-404 "/>
<polyline style="fill:none;stroke:black;" points="45,-380 161,-380 "/>
</g>
<!-- StoreController -->
<g id="node6" class="node"><title>StoreController</title>
<polyline style="fill:none;stroke:black;" points="431,-304 531,-304 "/>
<path style="fill:none;stroke:black;" d="M531,-304C537,-304 543,-310 543,-316"/>
<polyline style="fill:none;stroke:black;" points="543,-316 543,-527 "/>
<path style="fill:none;stroke:black;" d="M543,-527C543,-533 537,-539 531,-539"/>
<polyline style="fill:none;stroke:black;" points="531,-539 431,-539 "/>
<path style="fill:none;stroke:black;" d="M431,-539C425,-539 419,-533 419,-527"/>
<polyline style="fill:none;stroke:black;" points="419,-527 419,-316 "/>
<path style="fill:none;stroke:black;" d="M419,-316C419,-310 425,-304 431,-304"/>
<text text-anchor="middle" x="481" y="-521.9" style="font-family:Times New Roman;font-size:11.00;">StoreController</text>
<polyline style="fill:none;stroke:black;" points="419,-514 543,-514 "/>
<text text-anchor="start" x="427" y="-496.9" style="font-family:Times New Roman;font-size:11.00;">add_to_cart</text>
<text text-anchor="start" x="427" y="-479.9" style="font-family:Times New Roman;font-size:11.00;">buy</text>
<text text-anchor="start" x="427" y="-462.9" style="font-family:Times New Roman;font-size:11.00;">checkout</text>
<text text-anchor="start" x="427" y="-445.9" style="font-family:Times New Roman;font-size:11.00;">confirm</text>
<text text-anchor="start" x="427" y="-428.9" style="font-family:Times New Roman;font-size:11.00;">index</text>
<text text-anchor="start" x="427" y="-411.9" style="font-family:Times New Roman;font-size:11.00;">login</text>
<text text-anchor="start" x="427" y="-394.9" style="font-family:Times New Roman;font-size:11.00;">logout</text>
<text text-anchor="start" x="427" y="-377.9" style="font-family:Times New Roman;font-size:11.00;">remove_from_cart</text>
<text text-anchor="start" x="427" y="-360.9" style="font-family:Times New Roman;font-size:11.00;">update_quantity</text>
<polyline style="fill:none;stroke:black;" points="419,-353 543,-353 "/>
<polyline style="fill:none;stroke:black;" points="419,-329 543,-329 "/>
<text text-anchor="start" x="427" y="-311.9" style="font-family:Times New Roman;font-size:11.00;">find_cart</text>
</g>
<!-- TestRunsController -->
<g id="node7" class="node"><title>TestRunsController</title>
<polyline style="fill:none;stroke:black;" points="253,-383 358,-383 "/>
<path style="fill:none;stroke:black;" d="M358,-383C364,-383 370,-389 370,-395"/>
<polyline style="fill:none;stroke:black;" points="370,-395 370,-588 "/>
<path style="fill:none;stroke:black;" d="M370,-588C370,-594 364,-600 358,-600"/>
<polyline style="fill:none;stroke:black;" points="358,-600 253,-600 "/>
<path style="fill:none;stroke:black;" d="M253,-600C247,-600 241,-594 241,-588"/>
<polyline style="fill:none;stroke:black;" points="241,-588 241,-395 "/>
<path style="fill:none;stroke:black;" d="M241,-395C241,-389 247,-383 253,-383"/>
<text text-anchor="middle" x="305" y="-582.9" style="font-family:Times New Roman;font-size:11.00;">TestRunsController</text>
<polyline style="fill:none;stroke:black;" points="241,-575 370,-575 "/>
<text text-anchor="start" x="248.5" y="-558.4" style="font-family:Times New Roman;font-size:11.00;">create</text>
<text text-anchor="start" x="248.5" y="-541.4" style="font-family:Times New Roman;font-size:11.00;">destroy</text>
<text text-anchor="start" x="248.5" y="-524.4" style="font-family:Times New Roman;font-size:11.00;">destroy_all</text>
<text text-anchor="start" x="248.5" y="-507.4" style="font-family:Times New Roman;font-size:11.00;">edit</text>
<text text-anchor="start" x="248.5" y="-490.4" style="font-family:Times New Roman;font-size:11.00;">index</text>
<text text-anchor="start" x="248.5" y="-473.4" style="font-family:Times New Roman;font-size:11.00;">new</text>
<text text-anchor="start" x="248.5" y="-456.4" style="font-family:Times New Roman;font-size:11.00;">show</text>
<text text-anchor="start" x="248.5" y="-439.4" style="font-family:Times New Roman;font-size:11.00;">update</text>
<polyline style="fill:none;stroke:black;" points="241,-431 370,-431 "/>
<polyline style="fill:none;stroke:black;" points="241,-407 370,-407 "/>
</g>
<!-- ApplicationController -->
<g id="node8" class="node"><title>ApplicationController</title>
<polyline style="fill:none;stroke:black;" points="226,-239 346,-239 "/>
<path style="fill:none;stroke:black;" d="M346,-239C352,-239 358,-245 358,-251"/>
<polyline style="fill:none;stroke:black;" points="358,-251 358,-324 "/>
<path style="fill:none;stroke:black;" d="M358,-324C358,-330 352,-336 346,-336"/>
<polyline style="fill:none;stroke:black;" points="346,-336 226,-336 "/>
<path style="fill:none;stroke:black;" d="M226,-336C220,-336 214,-330 214,-324"/>
<polyline style="fill:none;stroke:black;" points="214,-324 214,-251 "/>
<path style="fill:none;stroke:black;" d="M214,-251C214,-245 220,-239 226,-239"/>
<text text-anchor="middle" x="286" y="-318.9" style="font-family:Times New Roman;font-size:11.00;">ApplicationController</text>
<polyline style="fill:none;stroke:black;" points="214,-311 358,-311 "/>
<polyline style="fill:none;stroke:black;" points="214,-287 358,-287 "/>
<polyline style="fill:none;stroke:black;" points="214,-263 358,-263 "/>
</g>
<!-- ApplicationController&#45;&gt;JavascriptUnitTestController -->
<g id="edge2" class="edge"><title>ApplicationController&#45;&gt;JavascriptUnitTestController</title>
<path style="fill:none;stroke:black;" d="M208,-233C192,-223 176,-211 162,-201"/>
<polygon style="fill:none;stroke:black;" points="205.9,-235.8 216,-239 210.1,-230.2 205.9,-235.8"/>
</g>
<!-- ApplicationController&#45;&gt;JavascriptUnitTestResultController -->
<g id="edge4" class="edge"><title>ApplicationController&#45;&gt;JavascriptUnitTestResultController</title>
<path style="fill:none;stroke:black;" d="M353,-233C358,-228 364,-224 369,-219"/>
<polygon style="fill:none;stroke:black;" points="350.9,-230.2 345,-239 355.1,-235.8 350.9,-230.2"/>
</g>
<!-- ApplicationController&#45;&gt;JsController -->
<g id="edge6" class="edge"><title>ApplicationController&#45;&gt;JsController</title>
<path style="fill:none;stroke:black;" d="M281,-229C280,-210 279,-188 277,-167"/>
<polygon style="fill:none;stroke:black;" points="277.522,-229.398 282,-239 284.488,-228.701 277.522,-229.398"/>
</g>
<!-- ApplicationController&#45;&gt;LitmusController -->
<g id="edge8" class="edge"><title>ApplicationController&#45;&gt;LitmusController</title>
<path style="fill:none;stroke:black;" d="M220,-343C201,-358 180,-375 161,-391"/>
<polygon style="fill:none;stroke:black;" points="222.779,-345.219 228,-336 218.169,-339.951 222.779,-345.219"/>
</g>
<!-- ApplicationController&#45;&gt;StoreController -->
<g id="edge10" class="edge"><title>ApplicationController&#45;&gt;StoreController</title>
<path style="fill:none;stroke:black;" d="M364,-342C383,-354 402,-368 419,-379"/>
<polygon style="fill:none;stroke:black;" points="366.1,-339.2 356,-336 361.9,-344.8 366.1,-339.2"/>
</g>
<!-- ApplicationController&#45;&gt;TestRunsController -->
<g id="edge12" class="edge"><title>ApplicationController&#45;&gt;TestRunsController</title>
<path style="fill:none;stroke:black;" d="M291,-346C292,-358 293,-370 295,-383"/>
<polygon style="fill:none;stroke:black;" points="294.478,-345.602 290,-336 287.512,-346.299 294.478,-345.602"/>
</g>
</g>
</svg>
