<?xml version="1.0" encoding="UTF-8" standalone="no"?>
<!DOCTYPE svg PUBLIC "-//W3C//DTD SVG 1.0//EN"
 "http://www.w3.org/TR/2001/REC-SVG-20010904/DTD/svg10.dtd" [
 <!ATTLIST svg xmlns:xlink CDATA #FIXED "http://www.w3.org/1999/xlink">
]>
<!-- Generated by Graphviz version 2.20.2 (Tue Jul 29 16:40:41 UTC 2008)
     For user: (liamc) Liam Clancy -->
<!-- Title: models_diagram Pages: 1 -->
<svg width="922pt" height="606pt"
 viewBox="0.00 0.00 922.00 606.00" xmlns="http://www.w3.org/2000/svg" xmlns:xlink="http://www.w3.org/1999/xlink">
<g id="graph0" class="graph" transform="scale(1 1) rotate(0) translate(4 602)">
<title>models_diagram</title>
<polygon style="fill:white;stroke:white;" points="-4,4 -4,-602 918,-602 918,4 -4,4"/>
<!-- _diagram_info -->
<g id="node1" class="node"><title>_diagram_info</title>
<text text-anchor="start" x="7.5" y="-560.4" style="font-family:Times New Roman;font-size:11.00;">Models diagram</text>
<text text-anchor="start" x="7.5" y="-543.4" style="font-family:Times New Roman;font-size:11.00;">Date: Feb 12 2009 &#45; 10:18</text>
<text text-anchor="start" x="7.5" y="-526.4" style="font-family:Times New Roman;font-size:11.00;">Migration version: 20090108180233</text>
<text text-anchor="start" x="7.5" y="-509.4" style="font-family:Times New Roman;font-size:11.00;">Generated by RailRoad 0.5.0</text>
</g>
<!-- Cart -->
<g id="node2" class="node"><title>Cart</title>
<polygon style="fill:none;stroke:black;" points="248,-514 248,-564 302,-564 302,-514 248,-514"/>
<text text-anchor="middle" x="275" y="-546.9" style="font-family:Times New Roman;font-size:11.00;">Cart</text>
<polyline style="fill:none;stroke:black;" points="248,-539 302,-539 "/>
<text text-anchor="middle" x="275" y="-521.9" style="font-family:Times New Roman;font-size:11.00;"> </text>
</g>
<!-- CartItem -->
<g id="node3" class="node"><title>CartItem</title>
<polygon style="fill:none;stroke:black;" points="320,-514 320,-564 387,-564 387,-514 320,-514"/>
<text text-anchor="middle" x="353" y="-546.9" style="font-family:Times New Roman;font-size:11.00;">CartItem</text>
<polyline style="fill:none;stroke:black;" points="320,-539 387,-539 "/>
<text text-anchor="middle" x="353" y="-521.9" style="font-family:Times New Roman;font-size:11.00;"> </text>
</g>
<!-- LitmusResource -->
<g id="node4" class="node"><title>LitmusResource</title>
<polygon style="fill:none;stroke:black;" points="449,-360 449,-410 558,-410 558,-360 449,-360"/>
<text text-anchor="middle" x="503" y="-392.9" style="font-family:Times New Roman;font-size:11.00;">LitmusResource</text>
<polyline style="fill:none;stroke:black;" points="449,-385 558,-385 "/>
<text text-anchor="middle" x="503" y="-367.9" style="font-family:Times New Roman;font-size:11.00;"> </text>
</g>
<!-- Product -->
<g id="node5" class="node"><title>Product</title>
<polyline style="fill:none;stroke:black;" points="632,-480 743,-480 "/>
<path style="fill:none;stroke:black;" d="M743,-480C749,-480 755,-486 755,-492"/>
<polyline style="fill:none;stroke:black;" points="755,-492 755,-586 "/>
<path style="fill:none;stroke:black;" d="M755,-586C755,-592 749,-598 743,-598"/>
<polyline style="fill:none;stroke:black;" points="743,-598 632,-598 "/>
<path style="fill:none;stroke:black;" d="M632,-598C626,-598 620,-592 620,-586"/>
<polyline style="fill:none;stroke:black;" points="620,-586 620,-492 "/>
<path style="fill:none;stroke:black;" d="M620,-492C620,-486 626,-480 632,-480"/>
<text text-anchor="middle" x="687" y="-580.9" style="font-family:Times New Roman;font-size:11.00;">Product</text>
<polyline style="fill:none;stroke:black;" points="620,-573 755,-573 "/>
<text text-anchor="start" x="627.5" y="-555.9" style="font-family:Times New Roman;font-size:11.00;">name :string</text>
<text text-anchor="start" x="627.5" y="-538.9" style="font-family:Times New Roman;font-size:11.00;">image_file :string</text>
<text text-anchor="start" x="627.5" y="-521.9" style="font-family:Times New Roman;font-size:11.00;">price :decimal</text>
<text text-anchor="start" x="627.5" y="-504.9" style="font-family:Times New Roman;font-size:11.00;">created_at :datetime</text>
<text text-anchor="start" x="627.5" y="-487.9" style="font-family:Times New Roman;font-size:11.00;">updated_at :datetime</text>
</g>
<!-- TestPage -->
<g id="node6" class="node"><title>TestPage</title>
<polyline style="fill:none;stroke:black;" points="776,-326 903,-326 "/>
<path style="fill:none;stroke:black;" d="M903,-326C909,-326 915,-332 915,-338"/>
<polyline style="fill:none;stroke:black;" points="915,-338 915,-432 "/>
<path style="fill:none;stroke:black;" d="M915,-432C915,-438 909,-444 903,-444"/>
<polyline style="fill:none;stroke:black;" points="903,-444 776,-444 "/>
<path style="fill:none;stroke:black;" d="M776,-444C770,-444 764,-438 764,-432"/>
<polyline style="fill:none;stroke:black;" points="764,-432 764,-338 "/>
<path style="fill:none;stroke:black;" d="M764,-338C764,-332 770,-326 776,-326"/>
<text text-anchor="middle" x="839" y="-426.9" style="font-family:Times New Roman;font-size:11.00;">TestPage</text>
<polyline style="fill:none;stroke:black;" points="764,-419 915,-419 "/>
<text text-anchor="start" x="771.5" y="-401.9" style="font-family:Times New Roman;font-size:11.00;">url :string</text>
<text text-anchor="start" x="771.5" y="-384.9" style="font-family:Times New Roman;font-size:11.00;">external_vendor :string</text>
<text text-anchor="start" x="771.5" y="-367.9" style="font-family:Times New Roman;font-size:11.00;">use_defaults :boolean</text>
<text text-anchor="start" x="771.5" y="-350.9" style="font-family:Times New Roman;font-size:11.00;">created_at :datetime</text>
<text text-anchor="start" x="771.5" y="-333.9" style="font-family:Times New Roman;font-size:11.00;">updated_at :datetime</text>
</g>
<!-- TestResult -->
<g id="node7" class="node"><title>TestResult</title>
<polyline style="fill:none;stroke:black;" points="784,-138 895,-138 "/>
<path style="fill:none;stroke:black;" d="M895,-138C901,-138 907,-144 907,-150"/>
<polyline style="fill:none;stroke:black;" points="907,-150 907,-278 "/>
<path style="fill:none;stroke:black;" d="M907,-278C907,-284 901,-290 895,-290"/>
<polyline style="fill:none;stroke:black;" points="895,-290 784,-290 "/>
<path style="fill:none;stroke:black;" d="M784,-290C778,-290 772,-284 772,-278"/>
<polyline style="fill:none;stroke:black;" points="772,-278 772,-150 "/>
<path style="fill:none;stroke:black;" d="M772,-150C772,-144 778,-138 784,-138"/>
<text text-anchor="middle" x="839" y="-272.9" style="font-family:Times New Roman;font-size:11.00;">TestResult</text>
<polyline style="fill:none;stroke:black;" points="772,-265 907,-265 "/>
<text text-anchor="start" x="779.5" y="-247.9" style="font-family:Times New Roman;font-size:11.00;">suite :string</text>
<text text-anchor="start" x="779.5" y="-230.9" style="font-family:Times New Roman;font-size:11.00;">passed :integer</text>
<text text-anchor="start" x="779.5" y="-213.9" style="font-family:Times New Roman;font-size:11.00;">failed :integer</text>
<text text-anchor="start" x="779.5" y="-196.9" style="font-family:Times New Roman;font-size:11.00;">ignored :integer</text>
<text text-anchor="start" x="779.5" y="-179.9" style="font-family:Times New Roman;font-size:11.00;">results_xml :text</text>
<text text-anchor="start" x="779.5" y="-162.9" style="font-family:Times New Roman;font-size:11.00;">created_at :datetime</text>
<text text-anchor="start" x="779.5" y="-145.9" style="font-family:Times New Roman;font-size:11.00;">updated_at :datetime</text>
</g>
<!-- TestPage&#45;&gt;TestResult -->
<g id="edge4" class="edge"><title>TestPage&#45;&gt;TestResult</title>
<path style="fill:none;stroke:black;" d="M839,-316C839,-310 839,-304 839,-298"/>
<polygon style="fill:black;stroke:black;" points="839,-316 834.5,-326 839,-321 839,-326 839,-326 839,-326 839,-321 843.5,-326 839,-316 839,-316"/>
<ellipse style="fill:black;stroke:black;" cx="839" cy="-294" rx="4" ry="4"/>
</g>
<!-- UserAgent -->
<g id="node9" class="node"><title>UserAgent</title>
<polyline style="fill:none;stroke:black;" points="784,-0 895,-0 "/>
<path style="fill:none;stroke:black;" d="M895,-0C901,-0 907,-6 907,-12"/>
<polyline style="fill:none;stroke:black;" points="907,-12 907,-89 "/>
<path style="fill:none;stroke:black;" d="M907,-89C907,-95 901,-101 895,-101"/>
<polyline style="fill:none;stroke:black;" points="895,-101 784,-101 "/>
<path style="fill:none;stroke:black;" d="M784,-101C778,-101 772,-95 772,-89"/>
<polyline style="fill:none;stroke:black;" points="772,-89 772,-12 "/>
<path style="fill:none;stroke:black;" d="M772,-12C772,-6 778,-0 784,-0"/>
<text text-anchor="middle" x="839" y="-83.9" style="font-family:Times New Roman;font-size:11.00;">UserAgent</text>
<polyline style="fill:none;stroke:black;" points="772,-76 907,-76 "/>
<text text-anchor="start" x="779.5" y="-59.4" style="font-family:Times New Roman;font-size:11.00;">ua_string :string</text>
<text text-anchor="start" x="779.5" y="-42.4" style="font-family:Times New Roman;font-size:11.00;">family :string</text>
<text text-anchor="start" x="779.5" y="-25.4" style="font-family:Times New Roman;font-size:11.00;">created_at :datetime</text>
<text text-anchor="start" x="779.5" y="-8.4" style="font-family:Times New Roman;font-size:11.00;">updated_at :datetime</text>
</g>
<!-- TestResult&#45;&gt;UserAgent -->
<g id="edge6" class="edge"><title>TestResult&#45;&gt;UserAgent</title>
<path style="fill:none;stroke:black;" d="M839,-130C839,-123 839,-116 839,-109"/>
<ellipse style="fill:none;stroke:black;" cx="839" cy="-134" rx="4" ry="4"/>
<ellipse style="fill:black;stroke:black;" cx="839" cy="-105" rx="4" ry="4"/>
</g>
<!-- TestRun -->
<g id="node8" class="node"><title>TestRun</title>
<polyline style="fill:none;stroke:black;" points="784,-497 895,-497 "/>
<path style="fill:none;stroke:black;" d="M895,-497C901,-497 907,-503 907,-509"/>
<polyline style="fill:none;stroke:black;" points="907,-509 907,-569 "/>
<path style="fill:none;stroke:black;" d="M907,-569C907,-575 901,-581 895,-581"/>
<polyline style="fill:none;stroke:black;" points="895,-581 784,-581 "/>
<path style="fill:none;stroke:black;" d="M784,-581C778,-581 772,-575 772,-569"/>
<polyline style="fill:none;stroke:black;" points="772,-569 772,-509 "/>
<path style="fill:none;stroke:black;" d="M772,-509C772,-503 778,-497 784,-497"/>
<text text-anchor="middle" x="839" y="-563.9" style="font-family:Times New Roman;font-size:11.00;">TestRun</text>
<polyline style="fill:none;stroke:black;" points="772,-556 907,-556 "/>
<text text-anchor="start" x="779.5" y="-538.9" style="font-family:Times New Roman;font-size:11.00;">label :string</text>
<text text-anchor="start" x="779.5" y="-521.9" style="font-family:Times New Roman;font-size:11.00;">created_at :datetime</text>
<text text-anchor="start" x="779.5" y="-504.9" style="font-family:Times New Roman;font-size:11.00;">updated_at :datetime</text>
</g>
<!-- TestRun&#45;&gt;TestPage -->
<g id="edge8" class="edge"><title>TestRun&#45;&gt;TestPage</title>
<path style="fill:none;stroke:black;" d="M839,-487C839,-476 839,-464 839,-452"/>
<polygon style="fill:black;stroke:black;" points="839,-487 834.5,-497 839,-492 839,-497 839,-497 839,-497 839,-492 843.5,-497 839,-487 839,-487"/>
<ellipse style="fill:black;stroke:black;" cx="839" cy="-448" rx="4" ry="4"/>
</g>
<!-- ActiveResource::Base -->
<g id="node10" class="node"><title>ActiveResource::Base</title>
<ellipse style="fill:none;stroke:black;" cx="503" cy="-539" rx="98.8688" ry="18"/>
<text text-anchor="middle" x="503" y="-534.9" style="font-family:Times New Roman;font-size:11.00;">ActiveResource::Base</text>
</g>
<!-- ActiveResource::Base&#45;&gt;LitmusResource -->
<g id="edge2" class="edge"><title>ActiveResource::Base&#45;&gt;LitmusResource</title>
<path style="fill:none;stroke:black;" d="M503,-511C503,-481 503,-437 503,-410"/>
<polygon style="fill:none;stroke:black;" points="499.5,-511 503,-521 506.5,-511 499.5,-511"/>
</g>
</g>
</svg>
